<svg version="1.0" xmlns="http://www.w3.org/2000/svg" width="1024.000000pt" height="1024.000000pt" viewBox="0 0 1024.000000 1024.000000" preserveAspectRatio="xMidYMid meet">

<g transform="translate(0.000000,1024.000000) scale(0.100000,-0.100000)" fill="#2196f3" stroke="none">
<path d="M4397 9439 c-52 -12 -95 -36 -138 -74 -29 -26 -48 -33 -97 -39 -253 -29 -688 -185 -863 -311 l-45 -32 -48 24 c-119 60 -267 33 -364 -67 -29 -30 -63 -72 -74 -92 -16 -27 -28 -38 -45 -38 -44 0 -303 -70 -410 -111 -91 -34 -258 -114 -273 -129 -25 -26 -66 -41 -94 -35 -17 4 -63 9 -103 12 -65 4 -78 2 -123 -23 -44 -24 -73 -51 -119 -110 -20 -26 -33 -91 -28 -144 5 -56 4 -59 -30 -92 -77 -73 -268 -339 -326 -454 -24 -47 -29 -51 -79 -62 -88 -20 -123 -36 -169 -74 -93 -78 -146 -254 -106 -351 9 -20 12 -37 7 -37 -24 0 -221 -290 -288 -425 -86 -171 -160 -423 -186 -630 -4 -27 -13 -45 -28 -55 -100 -66 -140 -145 -140 -273 0 -92 21 -135 102 -211 l52 -49 9 -101 c5 -56 12 -123 17 -151 16 -88 52 -237 62 -255 5 -10 17 -40 26 -66 9 -27 32 -79 50 -116 19 -38 32 -68 29 -68 -7 0 103 -175 129 -207 12 -14 51 -59 87 -100 66 -74 67 -77 68 -134 2 -144 141 -279 287 -279 24 0 70 9 102 20 l59 20 119 -39 c124 -41 306 -76 459 -87 97 -7 317 9 430 31 132 26 130 27 133 -25 7 -117 45 -304 84 -409 12 -31 43 -95 70 -144 26 -48 48 -90 48 -95 0 -4 26 -37 58 -74 120 -140 119 -137 111 -197 -16 -126 75 -258 206 -296 94 -27 153 -16 249 45 33 21 65 35 71 31 19 -15 140 -44 235 -56 276 -37 613 18 898 146 35 16 72 29 82 29 11 0 36 -21 57 -48 101 -127 258 -260 398 -337 139 -76 149 -83 156 -106 20 -78 80 -147 160 -187 54 -27 119 -175 194 -442 80 -284 128 -405 216 -539 34 -51 49 -84 49 -107 0 -80 53 -157 135 -196 33 -15 70 -28 82 -28 12 0 27 -8 32 -19 15 -28 177 -146 247 -181 139 -68 300 -87 434 -49 103 28 158 61 239 141 80 78 120 152 147 268 21 92 15 167 -26 348 -16 73 -34 173 -40 222 -34 299 128 589 403 723 l78 38 45 -22 c35 -17 63 -22 122 -21 95 0 153 24 210 86 56 61 73 97 82 180 l7 71 96 99 c53 55 113 125 134 155 21 31 43 61 49 68 6 6 36 62 66 125 79 161 117 280 138 428 8 59 30 100 54 100 6 0 36 12 66 26 30 15 66 32 79 38 43 20 199 140 268 207 79 76 181 207 225 287 16 31 38 73 49 92 10 19 28 62 40 95 12 33 27 77 35 97 17 47 44 261 44 353 0 97 -15 217 -39 314 l-21 82 22 42 c18 35 22 58 22 132 -1 114 -15 147 -94 216 l-60 53 0 76 c0 153 -28 316 -81 473 -31 91 -95 229 -118 253 -12 12 -21 26 -21 31 0 5 -40 60 -89 121 l-89 111 11 64 c16 97 -3 171 -64 250 -48 62 -54 66 -186 118 -13 5 -23 17 -23 26 -1 20 -34 122 -73 223 -103 265 -292 483 -620 715 -10 7 -25 39 -34 71 -15 61 -68 164 -83 164 -5 0 -21 11 -37 23 -57 48 -159 68 -233 47 -29 -8 -37 -7 -50 9 -25 30 -170 145 -245 193 -113 72 -290 152 -416 188 -125 35 -338 69 -439 70 l-65 0 -27 43 c-62 97 -139 145 -249 154 -88 7 -124 0 -193 -42 l-56 -34 -83 38 c-223 104 -474 164 -801 191 -120 10 -144 15 -177 37 -63 41 -155 59 -222 42z m498 -350 c200 -20 426 -78 577 -149 90 -42 92 -44 103 -121 3 -26 12 -55 20 -65 30 -40 25 -50 -105 -204 -41 -48 -127 -152 -190 -230 -154 -190 -147 -183 -178 -176 -15 4 -53 9 -84 12 l-57 7 -36 86 c-21 47 -56 131 -80 186 -24 55 -46 111 -50 125 -4 14 -12 31 -17 37 -11 14 -87 193 -121 284 l-21 56 31 45 c17 25 34 60 38 77 7 34 32 54 55 45 8 -3 60 -10 115 -15z m-696 -57 c11 -21 33 -53 50 -71 l31 -33 -39 -107 c-22 -58 -59 -160 -82 -226 -66 -193 -72 -207 -86 -212 -8 -3 -52 13 -99 36 -46 22 -86 41 -89 41 -3 0 -42 17 -87 39 -149 69 -302 137 -351 155 l-48 18 3 51 c3 47 6 53 48 83 25 18 51 33 58 33 8 1 44 19 82 41 38 22 74 40 82 40 7 0 38 12 68 26 30 15 69 30 85 34 17 5 71 19 120 33 101 29 204 55 222 56 7 1 21 -16 32 -37z m305 -210 c10 -26 31 -76 46 -112 16 -36 55 -128 88 -205 33 -77 63 -151 67 -165 4 -14 31 -74 59 -135 44 -94 50 -114 42 -137 -5 -16 -16 -28 -23 -28 -8 0 -82 33 -166 74 -84 41 -195 94 -247 119 -130 62 -133 65 -115 102 15 32 85 224 105 290 7 22 23 65 36 96 13 31 24 61 24 67 0 25 35 82 49 82 10 0 24 -19 35 -48z m1841 -82 c188 -21 401 -81 503 -141 18 -10 39 -19 45 -19 17 0 162 -99 232 -159 l60 -52 0 -97 c0 -53 3 -104 7 -112 5 -11 -24 -39 -109 -105 -63 -49 -160 -127 -214 -172 -55 -46 -103 -83 -108 -83 -5 0 -34 11 -66 25 -43 20 -72 25 -115 24 -31 -1 -61 1 -67 4 -9 6 -55 96 -90 177 -8 19 -22 46 -30 60 -8 14 -21 41 -30 60 -36 82 -114 246 -124 260 -5 8 -19 35 -30 60 -12 25 -34 72 -50 106 -31 64 -35 89 -19 99 6 4 22 24 35 45 18 29 29 37 47 34 13 -2 68 -8 123 -14z m-534 -166 c24 -8 62 -14 84 -14 58 2 65 1 65 -11 0 -6 41 -95 92 -197 51 -103 132 -268 181 -367 48 -99 93 -184 98 -189 15 -16 10 -31 -26 -79 l-34 -45 -88 20 c-91 20 -447 94 -518 108 -22 4 -94 17 -160 29 -66 13 -126 26 -134 30 -17 9 -72 162 -63 176 10 17 71 91 118 144 22 25 68 83 102 128 34 44 65 83 69 85 5 1 21 20 37 42 38 50 126 156 130 156 2 0 23 -7 47 -16z m-3066 -279 c-51 -99 -106 -205 -124 -235 -17 -30 -31 -61 -31 -69 0 -8 -6 -22 -14 -30 -7 -9 -49 -85 -92 -170 -43 -85 -86 -163 -95 -173 -16 -18 -19 -16 -61 49 -24 37 -68 109 -97 158 -29 50 -73 122 -97 160 -79 126 -78 121 -49 179 14 28 26 70 27 94 2 53 14 63 151 131 156 77 233 104 446 155 l54 12 37 -40 38 -40 -93 -181z m706 164 c63 -28 134 -60 159 -71 25 -12 83 -39 130 -62 47 -22 90 -41 95 -42 14 0 135 -63 135 -70 0 -14 -450 -454 -464 -454 -10 0 -27 5 -38 11 -12 6 -42 16 -67 23 l-46 11 -12 60 c-7 33 -28 134 -47 225 -19 91 -42 203 -52 249 l-18 84 24 16 c13 9 35 28 49 44 13 15 27 27 31 27 4 0 59 -23 121 -51z m-367 -271 c21 -106 49 -242 63 -303 l25 -110 -39 -35 c-42 -38 -88 -103 -116 -162 l-17 -38 -65 0 c-35 0 -132 -5 -215 -11 -83 -6 -154 -8 -158 -5 -3 4 28 73 69 154 203 397 312 608 320 617 5 5 9 15 9 23 0 26 35 61 61 62 25 0 26 -2 63 -192z m1126 -78 c28 -16 52 -30 54 -30 2 0 101 -47 221 -105 186 -90 216 -108 212 -125 -7 -28 19 -152 41 -197 29 -57 100 -117 168 -143 73 -27 174 -23 252 10 47 20 113 80 153 138 l16 22 269 -54 c370 -75 630 -126 637 -126 4 0 11 -19 17 -42 22 -88 42 -127 85 -167 56 -52 123 -81 209 -92 38 -5 70 -10 71 -11 1 -2 11 -23 22 -48 34 -74 212 -458 260 -560 25 -52 56 -122 70 -155 14 -33 54 -120 90 -193 l65 -134 -30 -31 c-102 -107 -114 -269 -30 -399 l40 -61 -28 -51 c-15 -28 -35 -63 -46 -78 -10 -14 -18 -32 -18 -38 0 -7 -15 -38 -34 -69 -19 -31 -63 -112 -99 -181 -36 -69 -103 -195 -148 -280 l-84 -155 -80 -5 c-183 -11 -306 -135 -306 -307 0 -66 19 -141 43 -170 9 -11 -11 -36 -98 -126 -61 -62 -134 -139 -164 -172 -112 -122 -109 -120 -232 -149 -305 -73 -599 -194 -1022 -421 -162 -86 -179 -95 -190 -95 -7 0 -37 24 -68 53 -30 28 -107 98 -169 154 -63 56 -145 131 -183 166 l-70 64 19 77 c30 129 0 243 -85 320 -67 60 -115 80 -205 83 l-79 2 -19 43 c-45 100 -99 217 -126 273 -122 252 -204 437 -211 475 -13 70 -50 158 -74 173 -11 8 -39 52 -60 98 -59 127 -92 199 -115 252 l-21 49 34 41 c55 69 69 105 74 194 6 113 -14 168 -94 253 l-62 65 19 70 c11 39 37 147 59 240 22 94 47 193 55 220 8 28 28 106 45 175 60 242 72 285 81 294 4 5 28 11 51 13 183 16 316 234 253 413 l-15 43 207 210 c201 202 316 316 320 317 1 0 25 -13 53 -30z m-2356 -107 c62 3 64 2 131 -118 15 -27 55 -94 89 -148 34 -54 72 -117 85 -140 13 -23 32 -53 43 -66 10 -14 15 -27 11 -31 -9 -8 -559 -45 -663 -45 -56 0 -66 3 -75 22 -6 12 -22 31 -36 43 -13 12 -18 18 -10 14 11 -5 13 -3 8 10 -15 39 151 299 272 424 42 44 54 51 70 43 10 -6 44 -9 75 -8z m5913 -57 c54 -40 129 -107 166 -147 76 -81 196 -247 202 -280 2 -11 10 -28 17 -36 13 -16 17 -25 69 -170 l33 -92 -42 -39 -42 -39 -72 24 c-40 13 -147 47 -238 75 -91 28 -214 67 -275 86 -98 30 -180 55 -225 67 -8 2 -94 28 -190 58 -96 30 -195 61 -219 69 -43 13 -45 15 -58 70 l-14 57 38 38 c21 21 54 49 72 63 19 14 62 48 94 75 33 28 74 61 91 74 17 13 53 42 79 64 30 24 54 37 65 34 9 -3 36 -13 60 -21 65 -24 158 -22 220 4 29 12 52 26 52 31 0 19 21 7 117 -65z m-4670 -704 l55 -55 -22 -81 c-12 -45 -30 -117 -40 -161 -22 -96 -104 -428 -126 -505 -8 -30 -24 -93 -35 -140 -23 -101 -37 -136 -48 -124 -5 5 -34 90 -65 189 -32 99 -75 234 -97 300 -21 66 -62 192 -89 280 -28 88 -67 209 -86 269 -20 59 -34 110 -32 112 2 2 76 8 164 14 87 7 197 15 244 18 l85 7 19 -34 c10 -19 43 -59 73 -89z m3888 77 c72 -22 168 -51 215 -65 47 -13 141 -42 210 -65 126 -41 184 -59 320 -99 41 -12 98 -30 125 -40 64 -23 141 -47 180 -55 51 -10 95 -42 95 -69 0 -13 7 -47 16 -75 l17 -51 -332 -331 c-260 -259 -335 -329 -349 -324 -39 17 -119 35 -157 35 l-40 1 -102 222 c-56 122 -116 254 -134 292 -17 39 -50 108 -71 155 -22 47 -60 130 -84 185 -24 55 -57 127 -73 160 -17 33 -31 66 -31 73 0 7 15 31 33 52 17 22 32 40 32 40 0 0 59 -18 130 -41z m-4775 -66 c-15 -32 -40 -85 -55 -118 -15 -33 -42 -91 -60 -130 -19 -38 -63 -135 -100 -215 -37 -80 -73 -151 -80 -158 -13 -14 -28 0 -215 218 -45 52 -96 111 -114 130 -18 19 -56 64 -86 98 l-54 64 16 31 c9 18 21 46 27 62 10 27 17 31 54 32 23 1 107 7 187 13 250 20 363 27 436 29 l71 1 -27 -57z m170 -118 c0 -9 16 -66 36 -128 100 -314 146 -454 154 -472 6 -11 19 -56 30 -100 11 -44 33 -116 49 -160 53 -148 61 -185 42 -185 -6 0 -71 41 -145 90 -75 50 -139 90 -142 90 -8 0 -315 190 -333 206 -17 15 -16 18 91 242 37 79 68 145 68 147 0 5 67 150 107 233 25 51 43 67 43 37z m-1001 -196 c36 -42 92 -106 124 -141 31 -36 57 -69 57 -73 0 -5 26 -36 58 -70 126 -136 151 -170 137 -188 -7 -9 -17 -17 -22 -17 -5 0 -23 -6 -39 -14 -56 -27 -130 -59 -209 -91 -148 -60 -236 -97 -316 -134 -25 -12 -49 -21 -53 -21 -4 0 -33 -13 -66 -29 -32 -16 -69 -32 -82 -36 -12 -4 -58 -25 -101 -46 -43 -22 -88 -39 -100 -39 -12 1 -42 18 -65 39 l-44 38 16 101 c37 230 155 506 295 689 90 116 73 108 217 108 l127 0 66 -76z m6949 -319 c2 -25 -1 -76 -7 -115 -6 -38 -20 -173 -31 -300 -11 -126 -24 -261 -30 -300 -5 -38 -21 -191 -35 -340 -65 -686 -56 -625 -88 -625 -17 1 -55 47 -165 203 -78 111 -186 258 -238 327 -131 172 -131 171 -105 231 29 67 37 179 17 252 l-15 58 222 220 c122 121 264 261 315 312 52 51 98 100 104 110 5 11 18 17 31 15 18 -2 23 -11 25 -48z m274 -3 c20 -18 52 -52 70 -77 49 -66 103 -145 100 -148 -1 -1 10 -26 24 -55 35 -68 60 -165 79 -302 16 -119 20 -255 7 -255 -4 0 -33 -22 -64 -50 -78 -70 -102 -128 -95 -235 2 -45 10 -91 17 -102 12 -19 9 -27 -31 -76 -56 -69 -176 -207 -238 -272 -26 -27 -58 -65 -71 -82 -47 -64 -52 -42 -34 143 8 82 16 163 18 179 2 17 9 80 15 140 6 61 16 144 21 185 5 41 16 165 25 275 9 110 22 250 30 310 8 61 19 169 25 240 17 210 18 215 43 215 12 -1 39 -15 59 -33z m-6772 -334 c0 -5 -5 -51 -10 -103 -5 -52 -12 -151 -15 -220 -3 -69 -12 -209 -20 -312 -8 -103 -15 -193 -15 -201 0 -8 -14 -20 -31 -26 -16 -6 -50 -24 -74 -40 -23 -16 -47 -25 -52 -21 -4 4 -51 31 -103 58 -52 28 -149 80 -215 116 -66 36 -192 102 -280 147 -88 45 -166 86 -173 92 -8 6 -12 27 -10 54 3 43 5 45 53 65 61 24 150 62 230 98 33 15 92 40 130 56 39 16 72 32 73 36 2 5 10 8 17 8 7 0 26 7 42 15 15 8 44 21 63 29 19 8 61 26 94 40 32 14 62 26 67 26 5 0 33 12 62 26 100 50 167 73 167 57z m242 -26 c24 -18 79 -53 123 -78 44 -25 107 -62 140 -83 33 -21 104 -65 159 -99 l99 -62 1 -102 c2 -100 1 -102 -24 -114 -14 -7 -41 -24 -60 -38 -52 -38 -191 -131 -195 -131 -3 0 -59 -38 -126 -85 -132 -93 -140 -95 -207 -55 l-32 20 5 72 c3 40 10 134 16 208 26 338 37 524 32 536 -6 17 3 44 16 44 5 0 29 -15 53 -33z m-1244 -685 c37 -20 108 -57 157 -82 50 -24 96 -50 103 -57 7 -7 18 -13 23 -13 5 0 60 -28 121 -62 62 -34 145 -78 183 -98 117 -61 110 -52 110 -138 1 -56 7 -90 21 -122 l21 -46 -146 -152 -146 -152 -56 16 c-52 15 -59 15 -130 -5 l-74 -20 -17 22 c-10 12 -26 31 -36 42 -66 70 -166 239 -213 357 -38 96 -70 223 -84 332 -22 161 -23 157 33 188 26 15 51 28 55 28 4 0 38 -17 75 -38z m1911 2 c48 -32 121 -54 176 -54 40 0 43 -2 68 -52 14 -29 37 -80 51 -113 13 -33 38 -89 55 -125 17 -36 31 -72 31 -81 0 -9 -27 -33 -59 -53 -151 -93 -321 -266 -431 -437 -25 -39 -95 -187 -113 -241 -10 -29 -22 -21 -68 45 -24 34 -62 87 -86 117 -78 101 -113 150 -113 159 0 5 -6 11 -13 14 -8 3 -39 43 -70 89 l-57 84 28 55 c24 48 27 65 27 151 l0 96 45 31 c25 17 88 60 140 96 52 35 151 104 220 154 69 49 126 90 128 90 1 1 20 -11 41 -25z m4745 -78 c41 -49 96 -123 156 -211 37 -54 109 -152 153 -208 26 -34 59 -80 74 -102 14 -22 45 -62 68 -90 l43 -50 -29 -54 c-16 -30 -29 -62 -29 -71 0 -30 -21 -37 -160 -49 -74 -7 -178 -19 -230 -27 -52 -7 -205 -25 -340 -39 -136 -13 -260 -27 -277 -31 -28 -6 -34 -2 -70 47 l-40 53 37 66 c36 63 79 144 183 340 27 52 79 149 115 214 35 66 77 148 93 183 28 63 29 64 61 58 18 -3 53 -1 78 4 72 14 77 13 114 -33z m1471 -272 c85 -14 80 -6 100 -149 11 -76 12 -127 5 -210 -11 -119 -14 -137 -54 -266 -38 -125 -153 -297 -271 -406 -49 -46 -93 -83 -98 -83 -5 0 -29 -15 -55 -32 -46 -32 -156 -88 -172 -88 -5 0 -11 26 -15 58 -4 31 -13 104 -21 162 l-14 105 38 30 c61 48 122 114 122 133 0 9 7 31 16 47 24 46 22 157 -5 233 l-23 63 79 87 c43 48 118 132 167 187 48 55 97 110 109 123 14 17 27 21 41 17 12 -4 35 -9 51 -11z m-5693 -381 c12 -27 46 -97 76 -157 29 -61 63 -133 74 -160 11 -28 49 -112 86 -186 98 -199 96 -190 55 -242 -19 -23 -36 -44 -38 -46 -1 -1 -45 7 -96 18 -52 12 -168 37 -259 57 -91 19 -183 39 -205 44 -22 5 -74 14 -115 21 -101 15 -106 20 -87 96 37 146 172 353 308 472 106 93 152 129 167 129 7 1 22 -20 34 -46z m-1507 -34 c39 -17 61 -20 114 -16 36 2 73 8 81 11 10 4 23 -5 37 -27 28 -40 117 -157 188 -245 19 -24 35 -49 35 -55 0 -6 13 -25 29 -42 16 -16 46 -55 65 -85 l36 -55 -27 -7 c-15 -4 -107 -12 -205 -18 -147 -9 -202 -8 -310 5 -72 8 -150 20 -172 26 -23 6 -57 15 -76 19 -19 5 -45 12 -58 16 -25 6 -42 39 -42 82 0 15 -7 39 -14 54 -25 48 -22 61 35 118 106 108 209 222 209 231 0 14 24 11 75 -12z m6192 -338 c10 -16 -3 -36 -103 -159 -63 -78 -114 -145 -114 -149 0 -4 -19 -28 -41 -53 -22 -25 -66 -80 -97 -123 l-57 -79 -283 6 c-155 4 -289 9 -297 12 -8 3 -19 22 -26 42 -6 21 -33 80 -60 132 -27 52 -49 101 -49 110 0 8 9 29 21 45 11 17 31 54 44 83 24 52 24 52 69 52 25 0 76 5 113 10 89 13 509 59 642 70 57 5 106 12 109 15 3 3 31 5 61 5 44 0 59 -4 68 -19z m227 -171 c11 -11 54 -370 45 -376 -30 -18 -430 -36 -447 -20 -6 7 89 136 145 196 18 19 33 40 33 46 0 6 7 18 17 25 9 8 41 45 71 82 53 67 55 69 91 62 20 -4 40 -11 45 -15z m-1707 -171 c17 -5 68 -13 114 -17 l83 -7 43 -85 c23 -47 42 -88 43 -92 0 -5 -42 -8 -92 -8 -51 0 -171 -7 -267 -15 -95 -9 -176 -14 -178 -12 -4 4 214 247 221 247 2 0 17 -5 33 -11z m-3602 -124 c61 -14 126 -29 145 -35 19 -5 82 -18 140 -30 58 -11 157 -31 220 -44 l114 -23 3 -37 c1 -21 12 -58 23 -82 l22 -44 -25 -33 c-34 -42 -135 -164 -219 -265 l-68 -80 -37 14 c-46 16 -112 18 -150 3 -26 -10 -31 -7 -61 28 -153 178 -232 362 -248 579 -6 78 -6 83 12 79 10 -3 69 -16 129 -30z m4055 -437 c18 -46 37 -87 41 -92 5 -5 -1 -22 -12 -37 -31 -43 -49 -96 -53 -149 -3 -39 -10 -54 -32 -74 -16 -14 -32 -26 -37 -26 -4 0 -47 -25 -95 -56 -111 -73 -146 -95 -260 -166 l-93 -58 -42 29 c-51 35 -173 153 -210 202 -26 35 -27 39 -16 89 12 55 6 138 -13 174 -6 12 -28 40 -51 63 l-40 42 12 44 c12 43 15 45 64 55 132 27 280 37 588 40 l217 2 32 -82z m410 75 c0 -2 -21 -32 -47 -65 -43 -54 -50 -59 -76 -54 -16 3 -40 6 -53 6 -25 0 -43 22 -69 83 l-15 37 130 -1 c71 0 130 -3 130 -6z m870 -10 c-1 -53 -81 -262 -139 -361 -43 -74 -215 -282 -233 -282 -5 0 -35 7 -66 16 -48 14 -68 15 -130 5 -41 -6 -80 -8 -87 -3 -8 4 -48 44 -89 90 -74 82 -74 83 -64 120 9 33 7 84 -8 167 -4 26 5 43 61 115 36 47 74 98 83 113 l17 28 210 -6 c116 -3 251 -2 300 3 142 14 145 14 145 -5z m-4148 -85 c36 -35 102 -97 148 -138 46 -41 90 -82 99 -91 9 -9 39 -36 67 -61 l51 -45 -71 -28 c-162 -63 -268 -95 -364 -110 -176 -26 -390 -17 -523 23 -56 17 -57 18 -73 71 l-17 53 28 35 c16 19 40 51 56 71 15 20 35 46 45 57 10 11 51 62 91 113 70 89 76 93 105 88 87 -17 162 -16 211 2 28 11 57 20 66 21 9 0 45 -27 81 -61z m1651 -66 c-28 -27 -59 -64 -68 -83 -25 -48 -23 -153 4 -214 12 -26 21 -53 21 -60 0 -6 -43 -84 -96 -172 l-95 -161 -37 5 c-26 3 -56 -3 -99 -20 -60 -24 -62 -25 -91 -7 -16 10 -60 35 -98 55 -106 57 -236 163 -303 249 -24 30 -29 42 -20 52 6 8 16 14 21 14 10 0 106 47 318 155 80 41 150 75 156 75 6 0 17 7 24 15 7 8 19 15 27 15 8 0 33 9 56 21 23 12 56 25 72 29 17 5 75 25 130 44 55 19 106 35 114 35 8 1 -9 -21 -36 -47z m1439 -452 c31 0 69 5 84 10 26 10 32 6 100 -65 93 -95 98 -105 83 -153 -24 -77 -31 -85 -104 -112 -62 -22 -85 -25 -205 -24 -145 0 -267 21 -417 70 -70 22 -135 58 -123 66 3 2 32 21 65 44 33 22 84 54 114 70 30 16 95 57 144 91 l90 62 56 -29 c43 -23 69 -30 113 -30z m-1256 -10 c1 0 30 -37 65 -81 62 -79 187 -195 271 -251 66 -44 76 -57 86 -111 5 -29 33 -145 63 -260 56 -221 57 -243 5 -216 -14 8 -76 43 -137 79 -62 36 -137 79 -168 97 -31 17 -130 74 -221 126 l-165 95 -7 56 c-4 31 -17 77 -28 103 -11 25 -20 52 -20 61 0 8 18 43 40 78 22 35 40 67 40 72 0 9 75 128 97 154 11 13 21 14 46 7 18 -5 32 -9 33 -9z m808 -550 c42 -11 122 -25 178 -31 57 -5 109 -12 116 -14 8 -3 2 -19 -21 -48 -47 -62 -117 -199 -147 -292 l-27 -80 -17 33 c-18 35 -112 102 -144 102 -10 0 -25 6 -34 13 -13 10 -74 239 -94 349 l-6 37 60 -24 c33 -13 94 -34 136 -45z m-946 -202 c20 -12 39 -24 42 -27 6 -7 10 -9 135 -76 50 -26 108 -60 131 -75 23 -15 89 -53 148 -85 l106 -58 0 -51 c1 -28 7 -69 15 -90 16 -44 17 -40 -45 -119 -25 -33 -52 -69 -60 -80 -8 -12 -31 -42 -51 -67 l-37 -46 -89 2 -88 2 -32 41 c-35 46 -81 159 -114 279 -42 153 -102 339 -135 420 -19 45 -34 85 -34 88 0 3 16 -4 35 -15 19 -12 52 -31 73 -43z m1040 -635 c7 -54 26 -152 42 -218 16 -66 30 -139 30 -161 0 -170 -167 -298 -344 -264 -77 15 -158 51 -212 95 l-42 35 14 37 c18 51 17 126 -1 170 -8 19 -15 42 -15 50 0 14 73 116 159 223 25 31 52 54 60 52 119 -20 176 -10 242 43 24 19 47 35 50 35 3 0 11 -44 17 -97z" fill="#2196f3"/>
<path d="M4160 7320 c-105 -13 -200 -82 -247 -178 l-28 -57 0 -1165 c0 -1259 -2 -1199 53 -1283 29 -43 126 -111 185 -129 33 -10 247 -13 947 -13 852 0 909 1 965 18 96 30 147 73 192 164 l38 77 3 830 c2 562 -1 852 -8 896 -22 136 -45 167 -359 481 -173 173 -305 297 -334 313 -93 53 -130 55 -767 54 -322 0 -610 -4 -640 -8z m1180 -397 c0 -145 5 -237 14 -274 15 -66 63 -137 118 -175 66 -46 120 -54 375 -54 l233 0 0 -810 c0 -896 4 -843 -65 -896 l-35 -26 -902 -2 c-887 -1 -904 -1 -936 19 -19 11 -43 37 -53 58 -19 36 -20 69 -19 1158 0 1244 -5 1160 68 1198 36 19 60 20 620 21 l582 0 0 -217z m417 -88 c117 -119 213 -218 213 -220 0 -3 -73 -5 -162 -5 -277 0 -278 1 -278 263 0 97 3 177 7 177 5 0 104 -97 220 -215z" fill="#2196f3"/>
</g>
</svg>